<?xml version="1.0" encoding="UTF-8" standalone="no"?><svg xmlns="http://www.w3.org/2000/svg" xmlns:xlink="http://www.w3.org/1999/xlink" contentScriptType="application/ecmascript" contentStyleType="text/css" height="117px" preserveAspectRatio="none" style="width:126px;height:117px;" version="1.1" viewBox="0 0 126 117" width="126px" zoomAndPan="magnify"><defs><filter height="300%" id="f1f8d3xfq1lrm5" width="300%" x="-1" y="-1"><feGaussianBlur result="blurOut" stdDeviation="2.0"/><feColorMatrix in="blurOut" result="blurOut2" type="matrix" values="0 0 0 0 0 0 0 0 0 0 0 0 0 0 0 0 0 0 .4 0"/><feOffset dx="4.0" dy="4.0" in="blurOut2" result="blurOut3"/><feBlend in="SourceGraphic" in2="blurOut3" mode="normal"/></filter></defs><g><!--MD5=[678896f9a038d78c237f4050933855b4]
class queue--><rect fill="#FEFECE" filter="url(#f1f8d3xfq1lrm5)" height="99.2188" id="queue" style="stroke: #A80036; stroke-width: 1.5;" width="108" x="7" y="7"/><ellipse cx="38.2" cy="23" fill="#ADD1B2" rx="11" ry="11" style="stroke: #A80036; stroke-width: 1.0;"/><path d="M41.1688,28.6406 Q40.5906,28.9375 39.95,29.0859 Q39.3094,29.2344 38.6063,29.2344 Q36.1063,29.2344 34.7859,27.5859 Q33.4656,25.9375 33.4656,22.8125 Q33.4656,19.6875 34.7859,18.0313 Q36.1063,16.375 38.6063,16.375 Q39.3094,16.375 39.9578,16.5313 Q40.6063,16.6875 41.1688,16.9844 L41.1688,19.7031 Q40.5438,19.125 39.95,18.8516 Q39.3563,18.5781 38.7313,18.5781 Q37.3875,18.5781 36.7,19.6484 Q36.0125,20.7188 36.0125,22.8125 Q36.0125,24.9063 36.7,25.9766 Q37.3875,27.0469 38.7313,27.0469 Q39.3563,27.0469 39.95,26.7734 Q40.5438,26.5 41.1688,25.9219 L41.1688,28.6406 Z "/><text fill="#000000" font-family="sans-serif" font-size="12" lengthAdjust="spacingAndGlyphs" textLength="40" x="55.8" y="27.1543">queue</text><line style="stroke: #A80036; stroke-width: 1.5;" x1="8" x2="114" y1="39" y2="39"/><rect fill="none" height="6" style="stroke: #C82930; stroke-width: 1.0;" width="6" x="15" y="47"/><text fill="#000000" font-family="sans-serif" font-size="11" lengthAdjust="spacingAndGlyphs" textLength="32" x="27" y="53.2104">items</text><line style="stroke: #A80036; stroke-width: 1.5;" x1="8" x2="114" y1="59.8047" y2="59.8047"/><rect fill="#F24D5C" height="6" style="stroke: #C82930; stroke-width: 1.0;" width="6" x="15" y="67.8047"/><text fill="#000000" font-family="sans-serif" font-size="11" lengthAdjust="spacingAndGlyphs" textLength="82" x="27" y="74.0151">enqueue(item)</text><rect fill="#F24D5C" height="6" style="stroke: #C82930; stroke-width: 1.0;" width="6" x="15" y="80.6094"/><text fill="#000000" font-family="sans-serif" font-size="11" lengthAdjust="spacingAndGlyphs" textLength="57" x="27" y="86.8198">dequeue()</text><rect fill="#F24D5C" height="6" style="stroke: #C82930; stroke-width: 1.0;" width="6" x="15" y="93.4141"/><text fill="#000000" font-family="sans-serif" font-size="11" lengthAdjust="spacingAndGlyphs" textLength="35" x="27" y="99.6245">peek()</text><!--MD5=[159d657d0c76a09b74ceb73a9e5a4f8b]
@startuml
class queue {
  - items
  - enqueue(item)
  - dequeue()
  - peek()
}	
@enduml

PlantUML version 1.2020.00(Sat Jan 11 20:30:53 SGT 2020)
(GPL source distribution)
Java Runtime: OpenJDK Runtime Environment
JVM: OpenJDK 64-Bit Server VM
Java Version: 1.8.0_162-8u162-b12-1-b12
Operating System: Linux
Default Encoding: UTF-8
Language: en
Country: SG
--></g></svg>