<?xml version="1.0" encoding="UTF-8" standalone="no"?><svg xmlns="http://www.w3.org/2000/svg" xmlns:xlink="http://www.w3.org/1999/xlink" contentScriptType="application/ecmascript" contentStyleType="text/css" height="168px" preserveAspectRatio="none" style="width:189px;height:168px;" version="1.1" viewBox="0 0 189 168" width="189px" zoomAndPan="magnify"><defs><filter height="300%" id="fe9zbcxdg87k8" width="300%" x="-1" y="-1"><feGaussianBlur result="blurOut" stdDeviation="2.0"/><feColorMatrix in="blurOut" result="blurOut2" type="matrix" values="0 0 0 0 0 0 0 0 0 0 0 0 0 0 0 0 0 0 .4 0"/><feOffset dx="4.0" dy="4.0" in="blurOut2" result="blurOut3"/><feBlend in="SourceGraphic" in2="blurOut3" mode="normal"/></filter></defs><g><!--MD5=[57528f4c716a2f9f06b37d90a80dda88]
class Example--><rect fill="#FEFECE" filter="url(#fe9zbcxdg87k8)" height="150.4375" id="Example" style="stroke: #A80036; stroke-width: 1.5;" width="171" x="7" y="7"/><ellipse cx="62.25" cy="23" fill="#ADD1B2" rx="11" ry="11" style="stroke: #A80036; stroke-width: 1.0;"/><path d="M65.2188,28.6406 Q64.6406,28.9375 64,29.0859 Q63.3594,29.2344 62.6563,29.2344 Q60.1563,29.2344 58.8359,27.5859 Q57.5156,25.9375 57.5156,22.8125 Q57.5156,19.6875 58.8359,18.0313 Q60.1563,16.375 62.6563,16.375 Q63.3594,16.375 64.0078,16.5313 Q64.6563,16.6875 65.2188,16.9844 L65.2188,19.7031 Q64.5938,19.125 64,18.8516 Q63.4063,18.5781 62.7813,18.5781 Q61.4375,18.5781 60.75,19.6484 Q60.0625,20.7188 60.0625,22.8125 Q60.0625,24.9063 60.75,25.9766 Q61.4375,27.0469 62.7813,27.0469 Q63.4063,27.0469 64,26.7734 Q64.5938,26.5 65.2188,25.9219 L65.2188,28.6406 Z "/><text fill="#000000" font-family="sans-serif" font-size="12" lengthAdjust="spacingAndGlyphs" textLength="52" x="82.75" y="27.1543">Example</text><line style="stroke: #A80036; stroke-width: 1.5;" x1="8" x2="177" y1="39" y2="39"/><rect fill="none" height="6" style="stroke: #C82930; stroke-width: 1.0;" width="6" x="15" y="47"/><text fill="#000000" font-family="sans-serif" font-size="11" lengthAdjust="spacingAndGlyphs" textLength="67" x="27" y="53.2104">private field</text><polygon fill="none" points="18,57.8047,22,61.8047,18,65.8047,14,61.8047" style="stroke: #B38D22; stroke-width: 1.0;"/><text fill="#000000" font-family="sans-serif" font-size="11" lengthAdjust="spacingAndGlyphs" textLength="82" x="27" y="66.0151">protected field</text><polygon fill="none" points="18,71.6094,14,77.6094,22,77.6094" style="stroke: #1963A0; stroke-width: 1.0;"/><text fill="#000000" font-family="sans-serif" font-size="11" lengthAdjust="spacingAndGlyphs" textLength="118" x="27" y="78.8198">package private field</text><ellipse cx="18" cy="88.4141" fill="none" rx="3" ry="3" style="stroke: #038048; stroke-width: 1.0;"/><text fill="#000000" font-family="sans-serif" font-size="11" lengthAdjust="spacingAndGlyphs" textLength="61" x="27" y="91.6245">public field</text><line style="stroke: #A80036; stroke-width: 1.5;" x1="8" x2="177" y1="98.2188" y2="98.2188"/><rect fill="#F24D5C" height="6" style="stroke: #C82930; stroke-width: 1.0;" width="6" x="15" y="106.2188"/><text fill="#000000" font-family="sans-serif" font-size="11" lengthAdjust="spacingAndGlyphs" textLength="96" x="27" y="112.4292">private_method()</text><polygon fill="#FFFF44" points="18,117.0234,22,121.0234,18,125.0234,14,121.0234" style="stroke: #B38D22; stroke-width: 1.0;"/><text fill="#000000" font-family="sans-serif" font-size="11" lengthAdjust="spacingAndGlyphs" textLength="111" x="27" y="125.2339">protected_method()</text><polygon fill="#4177AF" points="18,130.8281,14,136.8281,22,136.8281" style="stroke: #1963A0; stroke-width: 1.0;"/><text fill="#000000" font-family="sans-serif" font-size="11" lengthAdjust="spacingAndGlyphs" textLength="145" x="27" y="138.0386">package private method()</text><ellipse cx="18" cy="147.6328" fill="#84BE84" rx="3" ry="3" style="stroke: #038048; stroke-width: 1.0;"/><text fill="#000000" font-family="sans-serif" font-size="11" lengthAdjust="spacingAndGlyphs" textLength="88" x="27" y="150.8433">public method()</text><!--MD5=[85bbba73bb95fb91c87745f4238152fd]
@startuml
class Example {
  - private field
  # protected field
  ~ package private field
  + public field
  - private_method()
  # protected_method()
  ~ package private method()
  + public method()
}    
@enduml

PlantUML version 1.2020.00(Sat Jan 11 20:30:53 SGT 2020)
(GPL source distribution)
Java Runtime: OpenJDK Runtime Environment
JVM: OpenJDK 64-Bit Server VM
Java Version: 1.8.0_162-8u162-b12-1-b12
Operating System: Linux
Default Encoding: UTF-8
Language: en
Country: SG
--></g></svg>