<?xml version="1.0" encoding="UTF-8" standalone="no"?><svg xmlns="http://www.w3.org/2000/svg" xmlns:xlink="http://www.w3.org/1999/xlink" contentScriptType="application/ecmascript" contentStyleType="text/css" height="117px" preserveAspectRatio="none" style="width:105px;height:117px;" version="1.1" viewBox="0 0 105 117" width="105px" zoomAndPan="magnify"><defs><filter height="300%" id="f1bce5dkggl69z" width="300%" x="-1" y="-1"><feGaussianBlur result="blurOut" stdDeviation="2.0"/><feColorMatrix in="blurOut" result="blurOut2" type="matrix" values="0 0 0 0 0 0 0 0 0 0 0 0 0 0 0 0 0 0 .4 0"/><feOffset dx="4.0" dy="4.0" in="blurOut2" result="blurOut3"/><feBlend in="SourceGraphic" in2="blurOut3" mode="normal"/></filter></defs><g><!--MD5=[2abc714dff23b61b9c95db5294a85bdf]
class stack--><rect fill="#FEFECE" filter="url(#f1bce5dkggl69z)" height="99.2188" id="stack" style="stroke: #A80036; stroke-width: 1.5;" width="87" x="7" y="7"/><ellipse cx="31.45" cy="23" fill="#ADD1B2" rx="11" ry="11" style="stroke: #A80036; stroke-width: 1.0;"/><path d="M34.4188,28.6406 Q33.8406,28.9375 33.2,29.0859 Q32.5594,29.2344 31.8563,29.2344 Q29.3563,29.2344 28.0359,27.5859 Q26.7156,25.9375 26.7156,22.8125 Q26.7156,19.6875 28.0359,18.0313 Q29.3563,16.375 31.8563,16.375 Q32.5594,16.375 33.2078,16.5313 Q33.8563,16.6875 34.4188,16.9844 L34.4188,19.7031 Q33.7938,19.125 33.2,18.8516 Q32.6063,18.5781 31.9813,18.5781 Q30.6375,18.5781 29.95,19.6484 Q29.2625,20.7188 29.2625,22.8125 Q29.2625,24.9063 29.95,25.9766 Q30.6375,27.0469 31.9813,27.0469 Q32.6063,27.0469 33.2,26.7734 Q33.7938,26.5 34.4188,25.9219 L34.4188,28.6406 Z "/><text fill="#000000" font-family="sans-serif" font-size="12" lengthAdjust="spacingAndGlyphs" textLength="34" x="47.55" y="27.1543">stack</text><line style="stroke: #A80036; stroke-width: 1.5;" x1="8" x2="93" y1="39" y2="39"/><rect fill="none" height="6" style="stroke: #C82930; stroke-width: 1.0;" width="6" x="15" y="47"/><text fill="#000000" font-family="sans-serif" font-size="11" lengthAdjust="spacingAndGlyphs" textLength="32" x="27" y="53.2104">items</text><line style="stroke: #A80036; stroke-width: 1.5;" x1="8" x2="93" y1="59.8047" y2="59.8047"/><rect fill="#F24D5C" height="6" style="stroke: #C82930; stroke-width: 1.0;" width="6" x="15" y="67.8047"/><text fill="#000000" font-family="sans-serif" font-size="11" lengthAdjust="spacingAndGlyphs" textLength="61" x="27" y="74.0151">push(item)</text><rect fill="#F24D5C" height="6" style="stroke: #C82930; stroke-width: 1.0;" width="6" x="15" y="80.6094"/><text fill="#000000" font-family="sans-serif" font-size="11" lengthAdjust="spacingAndGlyphs" textLength="29" x="27" y="86.8198">pop()</text><rect fill="#F24D5C" height="6" style="stroke: #C82930; stroke-width: 1.0;" width="6" x="15" y="93.4141"/><text fill="#000000" font-family="sans-serif" font-size="11" lengthAdjust="spacingAndGlyphs" textLength="35" x="27" y="99.6245">peek()</text><!--MD5=[be72e9b9df397c040fe5bd0eed5e7bde]
@startuml
class stack {
  - items
  - push(item)
  - pop()
  - peek()
}	
@enduml

PlantUML version 1.2020.00(Sat Jan 11 20:30:53 SGT 2020)
(GPL source distribution)
Java Runtime: OpenJDK Runtime Environment
JVM: OpenJDK 64-Bit Server VM
Java Version: 1.8.0_162-8u162-b12-1-b12
Operating System: Linux
Default Encoding: UTF-8
Language: en
Country: SG
--></g></svg>